<?xml version="1.0" standalone="no"?>
<!DOCTYPE svg PUBLIC "-//W3C//DTD SVG 20010904//EN"
 "http://www.w3.org/TR/2001/REC-SVG-20010904/DTD/svg10.dtd">
<svg version="1.0" xmlns="http://www.w3.org/2000/svg"
 width="500.000000pt" height="500.000000pt" viewBox="0 0 500.000000 500.000000"
 preserveAspectRatio="xMidYMid meet">

<g transform="translate(0.000000,500.000000) scale(0.100000,-0.100000)"
fill="#FD636A" stroke="none">
<path d="M2023 3628 l-52 -9 20 -52 c47 -120 73 -162 104 -171 17 -4 58 -19
92 -32 71 -27 216 -43 227 -25 12 20 36 12 36 -11 -1 -48 -45 -78 -115 -78
-25 0 -61 -7 -80 -14 -31 -13 -35 -19 -35 -53 1 -49 25 -101 98 -210 72 -105
97 -156 89 -177 -12 -30 -33 -16 -106 74 -41 49 -82 97 -92 106 -17 15 -19 15
-25 1 -3 -9 4 -56 15 -106 12 -49 24 -116 27 -150 6 -52 4 -61 -11 -67 -26
-10 -36 8 -79 160 -22 75 -43 136 -48 136 -4 0 -6 -62 -5 -137 2 -127 1 -138
-17 -141 -27 -6 -32 8 -51 137 -24 163 -24 163 -41 159 -18 -3 -32 -35 -65
-146 -16 -56 -25 -72 -38 -70 -23 5 -25 56 -5 151 21 100 21 105 -5 192 -12
38 -22 97 -24 129 -2 49 -11 77 -48 149 l-46 89 -32 -51 c-98 -152 -96 -372 3
-525 19 -28 188 -205 377 -393 372 -369 373 -370 451 -344 24 8 137 115 389
369 336 338 357 361 388 430 69 153 57 312 -36 471 l-25 44 -21 -34 c-11 -19
-45 -71 -74 -117 -37 -58 -53 -93 -53 -116 0 -37 -33 -154 -57 -199 -12 -24
-12 -46 -3 -142 9 -86 9 -118 0 -134 -6 -12 -16 -21 -23 -18 -12 4 -15 14 -42
140 -15 71 -34 101 -51 84 -3 -3 -15 -45 -25 -94 -37 -166 -48 -195 -72 -191
-30 4 -33 56 -12 176 10 51 14 96 10 100 -4 4 -9 3 -12 -3 -85 -220 -113 -280
-127 -283 -38 -8 -30 76 24 234 42 124 26 126 -90 9 -52 -52 -103 -95 -112
-95 -43 0 -7 70 112 217 75 93 108 168 90 204 -10 18 -48 32 -126 44 -45 7
-78 32 -89 66 -9 27 9 47 28 31 26 -22 128 -26 197 -7 36 10 87 21 114 25 57
8 59 9 131 152 l55 106 -71 12 c-154 26 -299 -18 -419 -126 l-40 -36 -47 42
c-116 103 -274 147 -430 118z"/>
<path d="M3233 2130 c-40 -16 -66 -85 -72 -190 -5 -75 -9 -95 -22 -98 -10 -2
-18 10 -25 40 -8 37 -13 43 -38 46 -19 2 -36 -4 -53 -20 l-25 -23 3 95 c4 89
3 95 -15 95 -23 0 -29 -19 -50 -156 -14 -97 -59 -210 -76 -193 -8 9 -40 150
-40 179 0 10 11 15 38 17 l37 1 -35 4 c-41 5 -50 16 -50 64 0 20 -3 57 -6 83
-10 73 -33 61 -70 -37 l-31 -82 -53 -7 c-29 -3 -60 -14 -69 -23 -15 -17 -14
-17 9 -10 32 9 100 18 100 13 0 -2 -13 -44 -30 -93 -29 -85 -38 -137 -22 -121
4 4 23 53 42 109 30 88 38 102 55 99 26 -5 23 0 35 -62 6 -29 21 -77 35 -107
21 -47 27 -53 54 -53 25 0 34 7 50 38 l20 37 7 -42 c5 -36 10 -43 30 -43 16 0
24 7 26 22 2 15 13 24 35 30 19 5 45 24 64 48 43 54 72 54 88 0 15 -50 35 -70
71 -70 29 0 70 42 70 72 0 7 12 -2 26 -19 29 -37 71 -44 98 -17 26 25 78 105
73 110 -3 3 -26 -22 -53 -56 -26 -33 -52 -59 -58 -57 -6 2 -16 23 -22 48 -12
43 -11 44 23 74 29 25 34 36 31 64 -10 102 -118 29 -118 -80 0 -52 -55 -140
-79 -125 -5 4 -14 29 -20 57 -10 45 -9 54 8 78 65 91 95 228 57 257 -22 16
-23 16 -53 4z m42 -90 c-3 -25 -20 -72 -36 -105 l-29 -60 4 80 c2 46 11 98 21
124 17 41 19 43 32 25 10 -13 12 -33 8 -64z m-515 -60 c0 -33 -3 -40 -20 -40
-11 0 -20 2 -20 4 0 9 31 76 35 76 3 0 5 -18 5 -40z m650 -48 c0 -26 -15 -52
-31 -52 -4 0 -2 18 3 40 12 46 28 53 28 12z m-330 -62 c0 -35 -3 -39 -36 -50
-19 -7 -38 -10 -41 -7 -15 16 50 113 68 101 5 -3 9 -23 9 -44z m-40 -95 c-23
-24 -50 -33 -50 -17 0 18 58 56 69 46 3 -2 -6 -15 -19 -29z"/>
<path d="M1657 2103 c-7 -12 -25 -122 -32 -204 -8 -80 -55 -168 -99 -184 -24
-8 -31 -6 -47 14 -62 76 -46 321 21 321 22 0 70 -41 70 -60 0 -5 5 -10 10 -10
18 0 11 59 -10 80 -54 54 -136 21 -175 -73 -35 -84 -6 -214 61 -266 50 -40
115 -17 151 52 9 18 17 28 19 22 1 -5 5 -22 8 -37 4 -16 13 -28 21 -28 8 0 17
12 21 28 13 58 16 69 41 120 15 28 30 52 33 52 13 0 20 -42 20 -121 0 -92 14
-119 53 -102 14 7 31 27 38 46 11 31 15 34 31 24 17 -10 24 -7 49 23 l29 34 0
-29 c0 -52 19 -103 41 -110 25 -8 45 8 69 54 19 36 19 36 20 9 0 -16 4 -28 9
-28 12 0 27 72 37 168 6 68 8 72 31 72 24 0 25 -2 18 -47 -11 -85 -9 -168 4
-201 12 -30 17 -33 50 -30 31 3 39 9 60 47 23 42 25 44 34 23 11 -23 48 -39
67 -27 5 3 19 23 30 43 11 22 19 30 20 20 0 -10 7 -36 16 -58 18 -44 48 -59
82 -41 19 10 62 105 62 136 0 30 -17 14 -30 -27 -28 -97 -62 -127 -74 -67 -8
40 -8 139 0 216 l7 61 69 7 c84 8 81 19 -5 20 -58 0 -62 1 -60 23 4 32 -42 32
-51 -1 -3 -13 -18 -28 -33 -34 -26 -10 -26 -11 -5 -12 21 -1 22 -5 22 -73 0
-60 -5 -84 -30 -135 -16 -35 -34 -63 -39 -63 -15 0 -24 84 -17 151 6 48 4 59
-8 59 -17 0 -21 -11 -35 -93 -12 -65 -60 -165 -76 -157 -6 3 -9 56 -9 132 2
142 8 131 -77 143 l-46 6 -5 -68 c-5 -66 -32 -136 -72 -188 -14 -18 -15 -10
-16 102 l0 122 -52 -5 c-65 -7 -92 -33 -107 -104 -13 -62 -48 -133 -61 -125
-6 4 -10 47 -10 96 0 50 -5 99 -10 110 -16 29 -45 23 -80 -18 l-32 -38 6 50
c3 28 7 79 8 115 3 54 0 65 -14 68 -9 2 -19 -1 -21 -5z m295 -248 c-44 -90
-67 -85 -41 8 13 48 46 84 62 68 8 -8 3 -29 -21 -76z"/>
<path d="M2357 2014 c-9 -10 2 -24 19 -24 8 0 14 7 14 15 0 15 -21 21 -33 9z"/>
<path d="M1947 1523 c-4 -3 -7 -37 -7 -75 l0 -69 41 3 c50 4 71 27 52 58 -8
12 -9 21 -3 25 20 12 10 45 -16 55 -29 12 -58 13 -67 3z m71 -35 c-2 -17 -11
-24 -30 -26 -24 -3 -28 0 -28 22 0 22 4 26 31 26 26 0 30 -3 27 -22z m2 -53
c17 -20 -3 -45 -36 -45 -20 0 -24 5 -24 30 0 25 4 30 24 30 13 0 29 -7 36 -15z"/>
<path d="M2070 1455 l0 -75 48 2 c43 1 44 2 10 5 -34 4 -38 7 -38 33 0 25 4
29 33 33 l32 4 -32 1 c-28 2 -33 6 -33 27 0 22 4 25 35 25 19 0 35 5 35 10 0
6 -20 10 -45 10 l-45 0 0 -75z"/>
<path d="M2240 1520 c0 -5 9 -10 20 -10 17 0 20 -8 23 -67 l3 -68 2 68 c2 59
4 67 21 67 11 0 23 5 26 10 4 6 -13 10 -44 10 -28 0 -51 -4 -51 -10z"/>
<path d="M2368 1524 c-12 -11 -10 -144 2 -144 6 0 10 16 10 35 0 34 1 35 39
35 39 0 40 -1 44 -37 2 -21 4 -2 4 42 0 44 -2 63 -4 43 -4 -37 -6 -38 -43 -38
-37 0 -39 1 -42 36 -2 20 -6 32 -10 28z"/>
<path d="M2510 1455 l0 -75 48 2 47 1 -42 4 c-40 4 -43 6 -43 33 0 26 4 29 38
33 l37 4 -37 1 c-33 2 -38 5 -38 27 0 22 4 25 35 25 19 0 35 5 35 10 0 6 -18
10 -40 10 l-40 0 0 -75z"/>
<path d="M2680 1456 c0 -44 4 -76 10 -76 6 0 10 16 10 35 0 34 1 35 39 35 39
0 40 -1 44 -37 2 -21 4 -2 4 42 0 44 -2 63 -4 43 -4 -37 -5 -38 -44 -38 -37 0
-39 2 -39 29 0 17 -4 33 -10 36 -6 4 -10 -22 -10 -69z"/>
<path d="M2827 1523 c-4 -3 -7 -37 -7 -75 l0 -68 48 2 c43 1 44 2 10 5 -34 4
-38 7 -38 33 0 26 4 29 38 33 l37 4 -37 1 c-33 2 -38 5 -38 27 0 22 4 25 35
25 19 0 35 5 35 10 0 11 -73 14 -83 3z"/>
<path d="M2948 1524 c-5 -4 -8 -38 -8 -76 l0 -68 48 2 c42 1 43 2 10 5 l-37 4
-3 70 c-2 39 -6 67 -10 63z"/>
<path d="M3057 1523 c-11 -10 -8 -143 3 -143 6 0 10 14 10 30 0 24 4 30 21 30
58 0 84 61 33 80 -29 12 -58 13 -67 3z m73 -37 c0 -16 -7 -26 -22 -29 -29 -8
-38 -1 -38 29 0 20 5 24 30 24 25 0 30 -4 30 -24z"/>
<path d="M3183 1455 c0 -44 2 -61 4 -37 2 23 2 59 0 80 -2 20 -4 1 -4 -43z"/>
<path d="M3227 1524 c-11 -11 -8 -144 3 -144 5 0 10 26 12 57 l3 57 38 -57
c20 -31 42 -57 47 -57 13 0 13 137 0 145 -6 4 -10 -17 -10 -57 l0 -63 -36 55
c-46 68 -49 72 -57 64z"/>
<path d="M3390 1512 c-28 -23 -31 -83 -5 -112 19 -21 69 -27 80 -10 4 7 -3 8
-20 4 -69 -17 -91 95 -24 119 9 3 27 -1 38 -10 28 -19 43 -7 17 13 -27 19 -59
18 -86 -4z"/>
<path d="M3593 1455 c0 -44 2 -63 4 -42 4 36 5 37 44 37 38 0 39 -1 39 -35 0
-19 5 -35 10 -35 6 0 10 30 10 69 0 39 -4 73 -10 76 -6 4 -10 -8 -10 -29 0
-35 -1 -36 -39 -36 -39 0 -40 1 -44 38 -2 20 -4 1 -4 -43z"/>
<path d="M3776 1521 c-17 -26 -55 -141 -47 -141 5 0 11 9 14 20 8 30 72 28 80
-2 4 -12 9 -19 12 -16 7 6 -32 126 -45 141 -4 5 -11 4 -14 -2z m34 -87 c0 -2
-11 -4 -25 -4 -28 0 -30 6 -14 47 l11 28 14 -34 c8 -18 14 -35 14 -37z"/>
<path d="M3872 1454 c2 -70 2 -72 5 -21 2 31 7 57 11 57 4 0 23 -25 42 -55 19
-30 38 -55 43 -55 4 0 6 35 5 78 -2 69 -2 71 -5 20 -2 -32 -7 -58 -11 -58 -4
0 -20 20 -35 44 -50 80 -57 79 -55 -10z"/>
<path d="M4017 1523 c-4 -3 -7 -37 -7 -75 l0 -68 40 0 c50 0 80 27 80 73 0 17
-4 37 -8 44 -15 23 -90 42 -105 26z m80 -21 c7 -4 15 -22 19 -39 7 -37 -22
-73 -61 -73 -24 0 -25 3 -25 60 0 59 1 60 28 60 15 0 33 -4 39 -8z"/>
<path d="M4172 1518 c-23 -23 -13 -47 26 -65 40 -19 47 -39 20 -56 -13 -9 -22
-7 -37 8 -25 22 -39 14 -16 -9 33 -32 91 -11 83 31 -2 10 -20 26 -41 36 -40
18 -44 26 -25 45 16 16 23 15 43 -4 9 -9 18 -14 21 -11 8 8 -26 37 -45 37 -9
0 -22 -5 -29 -12z"/>
<path d="M3458 1453 c18 -4 23 -10 19 -25 -6 -23 1 -48 14 -48 5 0 9 18 9 40
0 39 -1 40 -32 39 -26 -1 -28 -3 -10 -6z"/>
</g>
</svg>
